<svg width="80" height="96" viewBox="0 0 72 88" fill="none" xmlns="http://www.w3.org/2000/svg">
  <path d="M10 88 Q14 62 36 62 Q58 62 62 88" fill="#B5D4F4" />
  <rect x="16" y="50" width="40" height="28" rx="10" fill="#378ADD" />
  <rect x="24" y="50" width="24" height="8" rx="4" fill="#185FA5" />
  <rect x="29" y="56" width="14" height="3" rx="1.5" fill="#B5D4F4" />
  <rect x="30" y="42" width="12" height="10" rx="4" fill="#CFE7FA" />
  <circle cx="36" cy="28" r="18" fill="#CFE7FA" stroke="#185FA5" stroke-width="0.8" />
  <path d="M18 26 Q18 10 36 10 Q54 10 54 26 Q52 20 36 20 Q20 20 18 26Z" fill="#185FA5" />
  <ellipse cx="36" cy="30" rx="13" ry="13" fill="#DFF0FB" />
  <circle cx="31" cy="28" r="2" fill="#0C447C" />
  <circle cx="41" cy="28" r="2" fill="#0C447C" />
  <circle cx="32" cy="27" r="0.8" fill="white" />
  <circle cx="42" cy="27" r="0.8" fill="white" />
  <path d="M29 24.5 Q31 23.5 33 24.5" stroke="#185FA5" stroke-width="1.2" fill="none" stroke-linecap="round" />
  <path d="M39 24.5 Q41 23.5 43 24.5" stroke="#185FA5" stroke-width="1.2" fill="none" stroke-linecap="round" />
  <path d="M30 34 Q36 38 42 34" stroke="#185FA5" stroke-width="1.4" fill="none" stroke-linecap="round" />
</svg>